<svg xmlns="http://www.w3.org/2000/svg" viewBox="0 0 192 192">
  <rect width="192" height="192" rx="24" fill="#1a1a2e"/>
  <rect x="24" y="20" width="144" height="152" rx="6" fill="#fff"/>
  <rect x="24" y="20" width="144" height="28" rx="6" fill="#000"/>
  <rect x="24" y="40" width="144" height="8" fill="#000"/>
  <text x="96" y="38" text-anchor="middle" font-family="Arial" font-weight="900" font-size="13" fill="#fff">DIAGNOSTIC SÉCURITÉ</text>
  <rect x="34" y="58" width="124" height="6" rx="1" fill="#ddd"/>
  <rect x="34" y="70" width="124" height="6" rx="1" fill="#ddd"/>
  <rect x="34" y="82" width="124" height="6" rx="1" fill="#ddd"/>
  <rect x="34" y="100" width="124" height="3" rx="1" fill="#000"/>
  <rect x="34" y="108" width="20" height="50" rx="1" fill="#eee" stroke="#000" stroke-width="0.5"/>
  <rect x="57" y="108" width="15" height="50" rx="1" fill="#eee" stroke="#000" stroke-width="0.5"/>
  <rect x="75" y="108" width="15" height="50" rx="1" fill="#eee" stroke="#000" stroke-width="0.5"/>
  <rect x="93" y="108" width="15" height="50" rx="1" fill="#eee" stroke="#000" stroke-width="0.5"/>
  <rect x="111" y="108" width="15" height="50" rx="1" fill="#eee" stroke="#000" stroke-width="0.5"/>
  <rect x="129" y="108" width="29" height="50" rx="1" fill="#eee" stroke="#000" stroke-width="0.5"/>
  <rect x="34" y="120" width="124" height="0.5" fill="#ccc"/>
  <rect x="34" y="130" width="124" height="0.5" fill="#ccc"/>
  <rect x="34" y="140" width="124" height="0.5" fill="#ccc"/>
  <rect x="34" y="150" width="124" height="0.5" fill="#ccc"/>
</svg>
